<svg width="603" height="603" viewBox="0 0 603 603" fill="none" xmlns="http://www.w3.org/2000/svg">
<path d="M462.865 301.5C462.865 392.549 389.197 466.256 298.448 466.256C207.698 466.256 134.03 392.549 134.03 301.5C134.03 210.451 207.698 136.744 298.448 136.744C389.197 136.744 462.865 210.451 462.865 301.5Z" stroke="#000577" stroke-opacity="0.2" stroke-width="70"/>
<circle cx="300.822" cy="301.5" r="194.601" stroke="white" stroke-opacity="0.25" stroke-width="70"/>
<path d="M525.946 301.5C525.946 427.417 424.158 529.338 298.787 529.338C173.416 529.338 71.6278 427.417 71.6278 301.5C71.6278 175.584 173.416 73.6626 298.787 73.6626C424.158 73.6626 525.946 175.584 525.946 301.5Z" stroke="#000577" stroke-opacity="0.2" stroke-width="70"/>
<circle cx="301.5" cy="301.5" r="266.5" stroke="white" stroke-opacity="0.25" stroke-width="70"/>
</svg>
